<svg xmlns="http://www.w3.org/2000/svg" viewBox="0 0 128 128">
  <path fill="#536b8a"
    d="M84.42 124.746 127.78 4.174c.735-2.045-.424-3.536-2.587-3.327L91.095 4.132c-2.163.208-4.5 2.043-5.214 4.095L45.748 123.455c-.715 2.052.469 3.718 2.642 3.718h33.189c1.086 0 2.267-.83 2.634-1.853z" />
  <path fill="#5d87bf"
    d="m2.808.847 34.097 3.285c2.163.208 4.502 2.013 5.22 4.063l40.982 117.12c.359 1.026-.232 1.858-1.319 1.858H48.39c-2.173 0-4.534-1.66-5.27-3.705L.221 4.174C-.514 2.13.645.638 2.808.847" />
</svg>
